<?xml version="1.0" standalone="no"?>
<!DOCTYPE svg PUBLIC "-//W3C//DTD SVG 20010904//EN"
 "http://www.w3.org/TR/2001/REC-SVG-20010904/DTD/svg10.dtd">
<svg version="1.0" xmlns="http://www.w3.org/2000/svg"
 width="500.000000pt" height="500.000000pt" viewBox="0 0 500.000000 500.000000"
 preserveAspectRatio="xMidYMid meet">
<metadata>
Created by potrace 1.14, written by Peter Selinger 2001-2017
</metadata>
<g transform="translate(0.000000,500.000000) scale(0.100000,-0.100000)"
fill="#000000" stroke="none">
<path d="M0 2500 l0 -2500 2500 0 2500 0 0 2500 0 2500 -2500 0 -2500 0 0
-2500z m1391 2183 c47 -25 98 -78 404 -427 l350 -400 5 397 5 397 28 27 27 28
298 3 c323 4 360 -1 390 -45 16 -25 17 -114 20 -1414 l2 -1387 284 0 284 0 1
387 c0 231 4 398 10 414 19 50 41 55 246 58 105 2 250 2 323 1 133 -2 134 -2
163 -31 l29 -29 0 -1156 c0 -741 -4 -1164 -10 -1181 -19 -50 -51 -55 -376 -55
-322 0 -349 4 -373 56 -8 17 -11 147 -11 424 l0 400 -285 0 -284 0 -3 -410 -3
-410 -28 -27 -27 -28 -303 -3 c-200 -2 -315 0 -340 8 -73 21 -68 -79 -68 1276
l0 1219 -120 145 c-66 80 -135 161 -152 180 -17 19 -56 67 -87 106 -30 38 -93
117 -140 173 l-85 104 -5 -594 c-5 -623 -5 -625 -50 -649 -29 -16 -619 -17
-657 -1 -61 25 -58 -42 -58 1220 0 636 3 1169 8 1184 4 15 22 36 40 47 29 18
51 20 263 20 l230 0 55 -27z"/>
</g>
</svg>
